<svg width="20" height="20" viewBox="0 0 20 20" fill="none" xmlns="http://www.w3.org/2000/svg">
<path d="M10 0C4.47734 0 0 4.47578 0 10C0 15.5242 4.47734 20 10 20C15.5227 20 20 15.5215 20 10C20 4.47852 15.5227 0 10 0Z" fill="#2AD352"/>
<path d="M9.28674e-06 10C-0.0022481 11.6529 0.407068 13.2804 1.19102 14.7356C2.18981 15.0288 3.22548 15.1773 4.26642 15.1766C10.2781 15.1766 15.1516 10.3031 15.1516 4.29142C15.1525 3.23398 14.9993 2.18204 14.6969 1.16876C13.2512 0.398733 11.6379 -0.00271381 10 1.38071e-05C4.47735 1.38071e-05 9.28674e-06 4.4758 9.28674e-06 10Z" fill="#74DA7F"/>
<path d="M15.7031 8.34301L9.69252 14.6551C9.52872 14.827 9.33192 14.964 9.11391 15.0579C8.8959 15.1519 8.66117 15.2009 8.42377 15.202H8.41596C8.17988 15.2021 7.9462 15.1547 7.72878 15.0627C7.51137 14.9707 7.31466 14.8359 7.15033 14.6665L3.96088 11.3813C3.79608 11.2159 3.66578 11.0194 3.57754 10.8032C3.4893 10.587 3.44487 10.3555 3.44684 10.122C3.44881 9.88848 3.49713 9.65771 3.589 9.44304C3.68087 9.22838 3.81446 9.0341 3.98202 8.87148C4.14958 8.70886 4.34777 8.58114 4.56509 8.49573C4.78241 8.41033 5.01452 8.36893 5.24796 8.37395C5.48141 8.37897 5.71153 8.4303 5.92497 8.52497C6.13842 8.61965 6.33093 8.75577 6.49135 8.92544L8.40346 10.895L13.1492 5.91137C13.3081 5.74091 13.4993 5.60366 13.7117 5.50755C13.924 5.41145 14.1534 5.3584 14.3863 5.35149C14.6193 5.34457 14.8514 5.38391 15.0691 5.46724C15.2868 5.55057 15.4858 5.67624 15.6546 5.83697C15.8234 5.9977 15.9587 6.1903 16.0526 6.40364C16.1465 6.61698 16.1971 6.84683 16.2016 7.07987C16.2061 7.31292 16.1644 7.54455 16.0788 7.76137C15.9933 7.97818 15.8655 8.17587 15.7031 8.34301Z" fill="white"/>
</svg>
