<svg width="21" height="20" viewBox="0 0 21 20" fill="none" xmlns="http://www.w3.org/2000/svg">
<path d="M10.6665 0C5.14385 0 0.666504 4.47578 0.666504 10C0.666504 15.5242 5.14385 20 10.6665 20C16.1892 20 20.6665 15.5215 20.6665 10C20.6665 4.47852 16.1892 0 10.6665 0Z" fill="#BFBFBF"/>
<path d="M0.666513 10C0.664256 11.6529 1.07357 13.2804 1.85753 14.7356C2.85631 15.0288 3.89198 15.1773 4.93292 15.1766C10.9446 15.1766 15.8181 10.3031 15.8181 4.29142C15.819 3.23398 15.6658 2.18204 15.3634 1.16876C13.9177 0.398733 12.3044 -0.00271381 10.6665 1.38071e-05C5.14386 1.38071e-05 0.666513 4.4758 0.666513 10Z" fill="#BFBFBF"/>
<path d="M16.3696 8.34301L10.359 14.6551C10.1952 14.827 9.99842 14.964 9.78041 15.0579C9.5624 15.1519 9.32767 15.2009 9.09027 15.202H9.08246C8.84638 15.2021 8.6127 15.1547 8.39529 15.0627C8.17787 14.9707 7.98116 14.8359 7.81684 14.6665L4.62738 11.3813C4.46259 11.2159 4.33229 11.0194 4.24405 10.8032C4.1558 10.587 4.11138 10.3555 4.11334 10.122C4.11531 9.88848 4.16363 9.65771 4.2555 9.44304C4.34738 9.22838 4.48097 9.0341 4.64853 8.87148C4.81609 8.70886 5.01428 8.58114 5.23159 8.49573C5.44891 8.41033 5.68102 8.36893 5.91447 8.37395C6.14791 8.37897 6.37803 8.4303 6.59148 8.52497C6.80492 8.61965 6.99744 8.75577 7.15785 8.92544L9.06996 10.895L13.8157 5.91137C13.9746 5.74091 14.1658 5.60366 14.3782 5.50755C14.5906 5.41145 14.8199 5.3584 15.0528 5.35149C15.2858 5.34457 15.5179 5.38391 15.7356 5.46724C15.9533 5.55057 16.1523 5.67624 16.3211 5.83697C16.4899 5.9977 16.6252 6.1903 16.7191 6.40364C16.813 6.61698 16.8636 6.84683 16.8681 7.07987C16.8727 7.31292 16.8309 7.54455 16.7453 7.76137C16.6598 7.97818 16.532 8.17587 16.3696 8.34301Z" fill="white"/>
</svg>
