<svg width="800" height="36" viewBox="0 0 800 36" fill="none" xmlns="http://www.w3.org/2000/svg">
<path d="M1 16C1 7.71573 7.71573 1 16 1H784C792.284 1 799 7.71573 799 16V35H1V16Z" fill="#ED9D70" stroke="#262626" stroke-width="2"/>
<rect x="699.5" y="9.5" width="18" height="18" fill="white" stroke="#262626"/>
<path d="M703.453 22.3594H713.844" stroke="black"/>
<rect x="728.5" y="9.5" width="18" height="18" fill="white" stroke="#262626"/>
<rect x="732.656" y="13.6562" width="9.6875" height="9.6875" fill="white" stroke="#262626"/>
<rect x="757.5" y="9.5" width="18" height="18" fill="white" stroke="#262626"/>
<path d="M767.185 18.5L770.631 14.5108C770.689 14.4445 770.64 14.3438 770.551 14.3438H769.504C769.442 14.3438 769.383 14.3705 769.342 14.4164L766.5 17.707L763.658 14.4164C763.619 14.3705 763.559 14.3438 763.496 14.3438H762.449C762.36 14.3438 762.311 14.4445 762.369 14.5108L765.815 18.5L762.369 22.4892C762.356 22.504 762.348 22.5221 762.345 22.5413C762.342 22.5605 762.345 22.5801 762.354 22.5977C762.362 22.6153 762.376 22.6301 762.392 22.6405C762.409 22.6509 762.429 22.6564 762.449 22.6562H763.496C763.558 22.6562 763.617 22.6295 763.658 22.5836L766.5 19.293L769.342 22.5836C769.381 22.6295 769.441 22.6562 769.504 22.6562H770.551C770.64 22.6562 770.689 22.5555 770.631 22.4892L767.185 18.5Z" fill="black"/>
<circle cx="32" cy="18" r="8" fill="white"/>
<circle cx="60" cy="18" r="8" fill="white"/>
<circle cx="88" cy="18" r="8" fill="white"/>
</svg>
