<svg width="82" height="29" viewBox="0 0 82 29" fill="none" xmlns="http://www.w3.org/2000/svg">
<rect y="0.331543" width="82" height="28" rx="8" fill="#EAE0CC"/>
<path d="M11.152 18.5415C9.74267 18.5415 8.58533 18.0562 7.68 17.0855C6.784 16.1055 6.336 14.8642 6.336 13.3615C6.336 11.8495 6.77467 10.5989 7.652 9.60954C8.52933 8.62021 9.69133 8.12554 11.138 8.12554C12.3327 8.12554 13.2893 8.44288 14.008 9.07754C14.736 9.70288 15.156 10.5102 15.268 11.4995H13.252C13.1587 10.9862 12.9253 10.5802 12.552 10.2815C12.188 9.98288 11.7167 9.83354 11.138 9.83354C10.2513 9.83354 9.57467 10.1602 9.108 10.8135C8.64133 11.4669 8.408 12.3162 8.408 13.3615C8.408 14.3975 8.65533 15.2422 9.15 15.8955C9.654 16.5489 10.3213 16.8755 11.152 16.8755C11.74 16.8755 12.23 16.7169 12.622 16.3995C13.014 16.0729 13.2427 15.6435 13.308 15.1115H15.296C15.24 16.0542 14.8713 16.8429 14.19 17.4775C13.434 18.1869 12.4213 18.5415 11.152 18.5415ZM20.7083 18.3315C20.615 18.2102 20.5403 17.9442 20.4843 17.5335H20.4563C20.251 17.8415 19.9896 18.0795 19.6723 18.2475C19.355 18.4155 18.9116 18.4995 18.3423 18.4995C17.5863 18.4995 16.9796 18.3082 16.5223 17.9255C16.065 17.5429 15.8363 17.0015 15.8363 16.3015C15.8363 15.5735 16.0883 15.0415 16.5923 14.7055C17.0963 14.3602 17.8056 14.1222 18.7203 13.9915C19.3923 13.8982 19.8496 13.8049 20.0923 13.7115C20.335 13.6089 20.4563 13.4315 20.4563 13.1795C20.4563 12.9182 20.3536 12.7129 20.1483 12.5635C19.943 12.4049 19.6443 12.3255 19.2523 12.3255C18.3843 12.3255 17.9223 12.6615 17.8663 13.3335H16.1723C16.2003 12.6522 16.4756 12.0875 16.9983 11.6395C17.521 11.1915 18.277 10.9675 19.2663 10.9675C21.2823 10.9675 22.2903 11.8495 22.2903 13.6135V17.2675C22.2903 17.8089 22.3743 18.1402 22.5423 18.2615V18.3315H20.7083ZM18.8043 17.1695C19.327 17.1695 19.7376 17.0342 20.0363 16.7635C20.3443 16.4929 20.4983 16.1709 20.4983 15.7975V14.7195C20.293 14.8409 19.8496 14.9809 19.1683 15.1395C18.627 15.2609 18.2443 15.4009 18.0203 15.5595C17.7963 15.7089 17.6843 15.9422 17.6843 16.2595C17.6843 16.8662 18.0576 17.1695 18.8043 17.1695ZM29.8708 18.3315H28.0368V17.4915H27.9948C27.7334 17.8462 27.4441 18.1075 27.1268 18.2755C26.8188 18.4435 26.4221 18.5275 25.9368 18.5275C25.1528 18.5275 24.5414 18.2942 24.1028 17.8275C23.6641 17.3609 23.4448 16.7309 23.4448 15.9375V11.1495H25.3348V15.6155C25.3348 16.4835 25.7314 16.9175 26.5248 16.9175C26.9634 16.9175 27.3134 16.7682 27.5748 16.4695C27.8361 16.1709 27.9668 15.7789 27.9668 15.2935V11.1495H29.8708V18.3315ZM30.6823 12.4095V11.1495H31.6763V8.90954H33.5383V11.1495H34.7703V12.4095H33.5383V16.2175C33.5383 16.6935 33.7763 16.9315 34.2523 16.9315L34.8123 16.9175V18.3175C34.523 18.3362 34.1263 18.3455 33.6223 18.3455C33.0717 18.3455 32.6097 18.2149 32.2363 17.9535C31.863 17.6829 31.6763 17.2395 31.6763 16.6235V12.4095H30.6823ZM35.7508 18.3315V11.1495H37.6548V18.3315H35.7508ZM35.7508 10.0295V8.32154H37.6548V10.0295H35.7508ZM44.9856 17.4635C44.2856 18.1822 43.385 18.5415 42.2836 18.5415C41.1823 18.5415 40.2816 18.1822 39.5816 17.4635C38.8816 16.7355 38.5316 15.8302 38.5316 14.7475C38.5316 13.6649 38.8816 12.7642 39.5816 12.0455C40.2816 11.3175 41.1823 10.9535 42.2836 10.9535C43.385 10.9535 44.2856 11.3175 44.9856 12.0455C45.6856 12.7642 46.0356 13.6649 46.0356 14.7475C46.0356 15.8302 45.6856 16.7355 44.9856 17.4635ZM42.2836 17.0855C42.853 17.0855 43.2963 16.8755 43.6136 16.4555C43.9403 16.0262 44.1036 15.4569 44.1036 14.7475C44.1036 14.0382 43.9403 13.4689 43.6136 13.0395C43.2963 12.6102 42.853 12.3955 42.2836 12.3955C41.705 12.3955 41.257 12.6102 40.9396 13.0395C40.6223 13.4595 40.4636 14.0289 40.4636 14.7475C40.4636 15.4569 40.6223 16.0262 40.9396 16.4555C41.257 16.8755 41.705 17.0855 42.2836 17.0855ZM48.7827 11.1495V12.1295H48.8247C49.3194 11.3455 50.0287 10.9535 50.9527 10.9535C51.69 10.9535 52.2874 11.2055 52.7447 11.7095C53.202 12.2042 53.4307 12.8482 53.4307 13.6415V18.3315H51.5267V13.9215C51.5267 13.5295 51.4147 13.2122 51.1907 12.9695C50.976 12.7269 50.6727 12.6055 50.2807 12.6055C49.8607 12.6055 49.5107 12.7595 49.2307 13.0675C48.96 13.3755 48.8247 13.7722 48.8247 14.2575V18.3315H46.9207V11.1495H48.7827Z" fill="#A97B28"/>
<path d="M67.2499 17.5815C67.2499 17.7805 67.3289 17.9712 67.4696 18.1119C67.6102 18.2525 67.801 18.3315 67.9999 18.3315C68.1988 18.3315 68.3896 18.2525 68.5302 18.1119C68.6709 17.9712 68.7499 17.7805 68.7499 17.5815C68.7499 17.3826 68.6709 17.1919 68.5302 17.0512C68.3896 16.9106 68.1988 16.8315 67.9999 16.8315C67.801 16.8315 67.6102 16.9106 67.4696 17.0512C67.3289 17.1919 67.2499 17.3826 67.2499 17.5815ZM67.4999 12.8315V15.7065C67.4999 15.7753 67.5562 15.8315 67.6249 15.8315H68.3749C68.4437 15.8315 68.4999 15.7753 68.4999 15.7065V12.8315C68.4999 12.7628 68.4437 12.7065 68.3749 12.7065H67.6249C67.5562 12.7065 67.4999 12.7628 67.4999 12.8315ZM74.9327 19.7065L68.4327 8.45654C68.3358 8.28936 68.1687 8.20654 67.9999 8.20654C67.8312 8.20654 67.6624 8.28936 67.5671 8.45654L61.0671 19.7065C60.8749 20.0409 61.1155 20.4565 61.4999 20.4565H74.4999C74.8843 20.4565 75.1249 20.0409 74.9327 19.7065ZM62.6905 19.2706L67.9999 10.08L73.3093 19.2706H62.6905Z" fill="#A97B28"/>
</svg>
