<svg width="16" height="17" viewBox="0 0 16 17" fill="none" xmlns="http://www.w3.org/2000/svg">
<g clip-path="url(#clip0_242_684)">
<path d="M13.7344 15.8237H5.76563C4.79627 15.8237 4.00781 15.0353 4.00781 14.0659V6.09717C4.00781 5.12781 4.79627 4.33936 5.76563 4.33936H13.7344C14.7037 4.33936 15.4922 5.12781 15.4922 6.09717V14.0659C15.4922 15.0353 14.7037 15.8237 13.7344 15.8237ZM5.76563 5.51123C5.44254 5.51123 5.17969 5.77408 5.17969 6.09717V14.0659C5.17969 14.389 5.44254 14.6519 5.76563 14.6519H13.7344C14.0575 14.6519 14.3203 14.389 14.3203 14.0659V6.09717C14.3203 5.77408 14.0575 5.51123 13.7344 5.51123H5.76563ZM2.83594 11.1362H2.25C1.92691 11.1362 1.66406 10.8734 1.66406 10.5503V2.58154C1.66406 2.25845 1.92691 1.99561 2.25 1.99561H10.2188C10.5418 1.99561 10.8047 2.25845 10.8047 2.58154V3.13818H11.9766V2.58154C11.9766 1.61218 11.1881 0.82373 10.2188 0.82373H2.25C1.28064 0.82373 0.492188 1.61218 0.492188 2.58154V10.5503C0.492188 11.5197 1.28064 12.3081 2.25 12.3081H2.83594V11.1362Z" fill="#E6368C"/>
</g>
<defs>
<clipPath id="clip0_242_684">
<rect width="16" height="16" fill="white" transform="translate(0 0.331543)"/>
</clipPath>
</defs>
</svg>
