<svg width="16" height="17" viewBox="0 0 16 17" fill="none" xmlns="http://www.w3.org/2000/svg">
<path d="M14.0002 1.66479H10.0002C9.82341 1.66479 9.65384 1.73503 9.52881 1.86006C9.40379 1.98508 9.33355 2.15465 9.33355 2.33146C9.33355 2.50827 9.40379 2.67784 9.52881 2.80287C9.65384 2.92789 9.82341 2.99813 10.0002 2.99813H12.3909L6.86222 8.5268C6.79854 8.58829 6.74776 8.66186 6.71282 8.74319C6.67788 8.82453 6.65949 8.91201 6.65872 9.00053C6.65795 9.08905 6.67482 9.17683 6.70834 9.25876C6.74186 9.3407 6.79136 9.41513 6.85395 9.47773C6.91655 9.54032 6.99098 9.58982 7.07291 9.62334C7.15485 9.65686 7.24263 9.67373 7.33115 9.67296C7.41967 9.67219 7.50715 9.6538 7.58849 9.61886C7.66982 9.58392 7.74339 9.53313 7.80488 9.46946L13.3336 3.94079V6.33146C13.3336 6.50827 13.4038 6.67784 13.5288 6.80287C13.6538 6.92789 13.8234 6.99813 14.0002 6.99813C14.177 6.99813 14.3466 6.92789 14.4716 6.80287C14.5966 6.67784 14.6669 6.50827 14.6669 6.33146V2.33146C14.6669 2.15465 14.5966 1.98508 14.4716 1.86006C14.3466 1.73503 14.177 1.66479 14.0002 1.66479Z" fill="#E6368C"/>
<path d="M12.6668 7.39029C12.49 7.39029 12.3204 7.46053 12.1954 7.58555C12.0704 7.71058 12.0002 7.88015 12.0002 8.05696V12.8323C12 13.0531 11.9122 13.2648 11.7561 13.4209C11.6 13.577 11.3883 13.6648 11.1675 13.665H3.4995C3.27871 13.6648 3.06702 13.577 2.91091 13.4209C2.75479 13.2648 2.66701 13.0531 2.66683 12.8323V5.16429C2.66701 4.94351 2.75479 4.73182 2.91091 4.5757C3.06702 4.41958 3.27871 4.3318 3.4995 4.33162H7.6475C7.82431 4.33162 7.99388 4.26139 8.1189 4.13636C8.24392 4.01134 8.31416 3.84177 8.31416 3.66496C8.31416 3.48815 8.24392 3.31858 8.1189 3.19355C7.99388 3.06853 7.82431 2.99829 7.6475 2.99829H3.4995C2.92525 2.999 2.37473 3.22743 1.96868 3.63348C1.56263 4.03953 1.3342 4.59005 1.3335 5.16429V12.831C1.33385 13.4054 1.56212 13.9563 1.96821 14.3626C2.3743 14.769 2.92502 14.9976 3.4995 14.9983H11.1662C11.7406 14.9979 12.2915 14.7697 12.6978 14.3636C13.1042 13.9575 13.3328 13.4068 13.3335 12.8323V8.05696C13.3335 7.88015 13.2633 7.71058 13.1382 7.58555C13.0132 7.46053 12.8436 7.39029 12.6668 7.39029Z" fill="#E6368C"/>
</svg>
