<svg width="33" height="32" viewBox="0 0 33 32" fill="none" xmlns="http://www.w3.org/2000/svg">
<rect width="31.7241" height="32" transform="translate(0.412109)" fill="white"/>
<path d="M9.62533 9.29289C10.0125 8.90237 10.6402 8.90237 11.0274 9.29289L16.2746 14.5858L21.5219 9.29289C21.909 8.90237 22.5367 8.90237 22.9239 9.29289C23.3111 9.68342 23.3111 10.3166 22.9239 10.7071L17.6766 16L22.9239 21.2929C23.3111 21.6834 23.3111 22.3166 22.9239 22.7071C22.5367 23.0976 21.909 23.0976 21.5219 22.7071L16.2746 17.4142L11.0274 22.7071C10.6402 23.0976 10.0125 23.0976 9.62533 22.7071C9.23817 22.3166 9.23817 21.6834 9.62533 21.2929L14.8726 16L9.62533 10.7071C9.23817 10.3166 9.23817 9.68342 9.62533 9.29289Z" fill="#0A203D"/>
</svg>
