<svg width="51" height="51" viewBox="0 0 51 51" fill="none" xmlns="http://www.w3.org/2000/svg">
<g filter="url(#filter0_d_745_3291)">
<circle cx="24" cy="24" r="23.5" fill="white" stroke="#262626"/>
<path d="M35.9522 29.7023L24.8181 18.3094C24.4139 17.8969 23.5866 17.8969 23.1855 18.3094L12.0482 29.7023C12.0208 29.7304 12.0044 29.7635 12.0008 29.798C11.9971 29.8325 12.0065 29.8671 12.0277 29.8979C12.049 29.9288 12.0813 29.9546 12.1212 29.9726C12.161 29.9906 12.2068 30.0001 12.2534 30H14.6217C14.7828 30 14.9344 29.9414 15.0291 29.8453L24.0002 20.6672L32.9713 29.8453C33.0661 29.9414 33.2176 30 33.3787 30H35.747C35.9522 30 36.0722 29.8266 35.9522 29.7023Z" fill="#262626"/>
</g>
<defs>
<filter id="filter0_d_745_3291" x="0" y="0" width="51" height="51" filterUnits="userSpaceOnUse" color-interpolation-filters="sRGB">
<feFlood flood-opacity="0" result="BackgroundImageFix"/>
<feColorMatrix in="SourceAlpha" type="matrix" values="0 0 0 0 0 0 0 0 0 0 0 0 0 0 0 0 0 0 127 0" result="hardAlpha"/>
<feOffset dx="3" dy="3"/>
<feComposite in2="hardAlpha" operator="out"/>
<feColorMatrix type="matrix" values="0 0 0 0 0.0705882 0 0 0 0 0.0705882 0 0 0 0 0.0705882 0 0 0 1 0"/>
<feBlend mode="normal" in2="BackgroundImageFix" result="effect1_dropShadow_745_3291"/>
<feBlend mode="normal" in="SourceGraphic" in2="effect1_dropShadow_745_3291" result="shape"/>
</filter>
</defs>
</svg>
